<?xml version="1.0" standalone="no"?>
<!DOCTYPE svg PUBLIC "-//W3C//DTD SVG 20010904//EN"
 "http://www.w3.org/TR/2001/REC-SVG-20010904/DTD/svg10.dtd">
<svg version="1.0" xmlns="http://www.w3.org/2000/svg"
 width="1024.000000pt" height="1024.000000pt" viewBox="0 0 1024.000000 1024.000000"
 preserveAspectRatio="xMidYMid meet">

<g transform="translate(0.000000,1024.000000) scale(0.100000,-0.100000)"
fill="#000000" stroke="none">
<path d="M2606 7084 c-185 -36 -300 -97 -426 -224 -52 -52 -110 -121 -128
-152 -106 -179 -148 -392 -123 -620 16 -143 33 -206 85 -313 83 -167 196 -278
371 -361 150 -71 192 -79 410 -78 176 0 195 2 267 26 106 35 197 89 274 160
62 59 164 196 164 223 0 7 -17 20 -37 28 -21 8 -87 38 -147 66 -60 29 -110 50
-110 49 -108 -173 -192 -234 -359 -259 -58 -9 -91 -8 -157 4 -193 33 -321 142
-387 328 -25 68 -27 87 -27 234 -1 144 1 168 23 234 52 157 166 280 304 329
64 22 84 24 183 20 102 -4 117 -7 185 -40 108 -51 157 -99 234 -226 2 -2 229
118 274 146 43 25 -153 253 -284 330 -168 99 -392 136 -589 96z"/>
<path d="M6240 7076 c-80 -17 -145 -52 -188 -101 -54 -62 -72 -127 -72 -268
l0 -117 -115 0 -115 0 0 -131 0 -131 113 3 112 4 3 -487 2 -488 155 0 155 0 0
488 0 489 143 -1 142 -1 3 128 3 127 -146 0 -145 0 0 54 c0 73 16 113 52 132
31 16 131 23 203 14 l39 -5 12 105 c7 58 13 120 15 139 l4 35 -60 12 c-75 16
-242 16 -315 0z"/>
<path d="M6870 6770 l0 -180 -90 0 -90 0 0 -130 0 -130 89 7 90 6 3 -384 c5
-439 6 -446 87 -529 65 -67 134 -91 276 -96 68 -3 133 0 170 8 l60 13 3 139 3
138 -23 -6 c-56 -15 -154 -17 -193 -4 -73 24 -75 36 -75 398 l0 316 145 -4
145 -3 0 131 0 130 -145 0 -145 0 0 180 0 180 -155 0 -155 0 0 -180z"/>
<path d="M4930 6629 c-170 -25 -309 -132 -364 -280 -15 -39 -25 -73 -24 -74 2
-2 32 -12 68 -23 36 -11 96 -32 133 -46 62 -23 68 -24 73 -8 39 123 116 182
238 182 148 0 236 -79 236 -213 l0 -59 -37 6 c-21 3 -92 9 -158 12 -328 17
-546 -116 -575 -352 -23 -181 52 -323 208 -397 65 -31 70 -32 207 -32 124 0
147 3 198 24 33 13 83 43 112 67 l54 43 7 -59 7 -60 144 0 145 0 -4 453 c-4
396 -7 459 -22 507 -36 112 -118 208 -222 259 -104 52 -278 72 -424 50z m296
-736 l64 -17 0 -42 c0 -24 -4 -54 -10 -68 -14 -37 -78 -105 -120 -126 -80 -41
-208 -43 -267 -5 -78 52 -79 171 -2 227 67 50 214 63 335 31z"/>
<path d="M4188 6606 c-86 -31 -149 -80 -202 -160 l-26 -39 0 92 0 92 -156 -3
-157 -3 -1 -613 -1 -612 162 0 162 0 3 338 c3 328 4 339 27 397 34 85 110 158
186 181 58 16 187 16 228 -1 16 -7 17 5 17 163 0 168 0 170 -22 176 -41 10
-182 5 -220 -8z"/>
<path d="M1030 4325 l0 -825 145 0 145 0 -2 585 c-2 321 0 581 3 577 4 -4 46
-95 94 -202 48 -107 120 -267 160 -355 39 -88 96 -213 125 -277 l52 -118 67
-1 c157 -2 193 -1 200 7 4 5 24 47 43 94 20 47 85 202 146 345 61 143 131 310
156 370 l45 110 1 -567 0 -568 155 0 155 0 0 825 0 825 -203 0 -204 0 -15 -37
c-8 -21 -83 -202 -166 -403 -82 -201 -170 -416 -194 -477 -23 -62 -46 -113
-49 -113 -4 0 -9 10 -12 23 -3 12 -99 243 -214 512 l-210 490 -211 3 -212 2 0
-825z"/>
<path d="M4250 4325 l0 -825 510 0 510 0 0 145 0 145 -350 0 -350 0 0 680 0
680 -160 0 -160 0 0 -825z"/>
<path d="M7188 4710 c-125 -22 -229 -79 -316 -174 -208 -229 -203 -680 11
-890 181 -177 480 -196 680 -43 26 21 48 37 50 37 7 0 -12 -149 -22 -175 -24
-58 -63 -97 -130 -129 -61 -28 -74 -31 -166 -30 -61 1 -126 8 -165 18 -73 20
-204 77 -214 95 -14 21 -25 11 -67 -61 -23 -40 -52 -90 -65 -110 -13 -21 -24
-42 -24 -48 0 -20 144 -103 235 -136 227 -81 468 -69 650 32 69 38 164 137
202 209 63 120 63 122 63 779 l0 596 -145 0 -145 0 0 -57 0 -57 -32 30 c-18
17 -47 40 -63 52 -73 49 -236 79 -337 62z m268 -303 c62 -32 107 -78 136 -142
20 -43 23 -66 23 -165 0 -106 -3 -119 -28 -167 -53 -102 -164 -159 -291 -151
-114 8 -191 60 -238 163 -19 42 -23 67 -23 160 0 105 2 114 33 177 36 75 88
122 155 144 63 21 173 12 233 -19z"/>
<path d="M5788 4686 c-206 -61 -358 -229 -404 -446 -23 -107 -14 -270 19 -373
81 -250 297 -401 572 -400 171 1 306 50 418 153 72 67 117 138 155 242 24 66
26 86 26 218 0 130 -3 153 -27 226 -84 254 -303 405 -586 403 -69 0 -117 -6
-173 -23z m307 -280 c64 -30 107 -76 142 -151 26 -55 28 -70 28 -175 0 -98 -4
-122 -23 -166 -49 -108 -146 -168 -272 -169 -65 0 -82 4 -129 30 -116 64 -173
211 -150 385 12 86 50 160 106 210 55 48 85 58 178 59 54 1 81 -5 120 -23z"/>
<path d="M8500 4691 c-92 -26 -114 -36 -179 -80 -165 -112 -252 -292 -253
-519 0 -202 48 -330 171 -453 120 -120 252 -172 431 -173 177 0 309 52 424
168 121 121 176 261 176 452 0 285 -142 497 -398 591 -93 35 -276 42 -372 14z
m283 -275 c57 -23 112 -81 143 -148 23 -52 29 -81 32 -159 7 -164 -42 -274
-148 -333 -50 -28 -63 -31 -145 -31 -103 0 -134 12 -203 78 -51 50 -80 122
-88 220 -16 190 75 350 221 388 41 11 146 3 188 -15z"/>
<path d="M2810 4692 c0 -5 45 -105 101 -223 55 -118 158 -338 229 -489 70
-151 146 -313 169 -360 l42 -84 -85 -181 c-47 -99 -97 -207 -113 -240 -15 -33
-29 -63 -31 -67 -2 -5 75 -8 171 -8 l174 0 31 78 c154 389 525 1292 613 1494
16 36 29 70 29 75 0 5 -71 9 -161 9 l-161 -1 -107 -270 c-59 -148 -131 -328
-158 -400 l-51 -130 -16 35 c-8 19 -87 199 -175 400 l-160 365 -170 3 c-94 1
-171 -1 -171 -6z"/>
</g>
</svg>
